<svg width="580" height="400" xmlns="http://www.w3.org/2000/svg" style="">
 <!-- Created with Method Draw - http://github.com/duopixel/Method-Draw/ -->
 <g>
  <title>background</title>
  <path fill="none" id="canvas_background" height="402" width="582" d="M-1 -1 L581 -1 L581 401 L-1 401 Z" class="sNzvAzVS_0"></path>
  <g display="none" overflow="visible" y="0" x="0" height="100%" width="100%" id="canvasGrid">
   <path fill="url(#gridpattern)" stroke-width="0" height="100%" width="100%" d="M0 0 L100 0 L100 100 L0 100 Z" class="sNzvAzVS_1"></path>
  </g>
 </g>
 <g>
  <title>Layer 1</title>
  <path d="m361.981491,225.770836c0,0 0,1 -1,1c-1,0 -1.693451,0.458801 -3,1c-0.923889,0.38269 -1.823761,0.486252 -4,1c-1.946503,0.459503 -5.076111,-0.38269 -6,0c-1.306549,0.541199 -3,1 -4,1c-1,0 -1.693451,1.458801 -3,2c-0.923889,0.38269 -1.823761,0.486252 -4,1c-0.973236,0.229752 -3.186005,0.692551 -5,2c-1.147278,0.826904 -1.693451,1.458801 -3,2c-0.923889,0.38269 -2,1 -4,2c-2,1 -3,2 -5,3c-2,1 -2.693451,1.458801 -4,2c-0.923889,0.38269 -1.61731,0.076126 -2,1c-0.541199,1.306564 -4.310211,3.718994 -7,7c-2.285889,2.78833 -2.61731,4.076111 -3,5c-0.541199,1.306549 -1,2 -1,3c0,1 -0.306549,2.458801 1,3c0.923889,0.38269 2,0 4,0c1,0 2,0 3,0c1,0 2,0 3,0c1,0 3,0 4,0c2,0 3.053497,0.459503 5,0c2.176239,-0.513733 4,-1 5,-1c1,0 2.693451,-0.458801 4,-1c0.923889,-0.38269 2.152252,0.765381 4,0c1.306549,-0.541199 2,-1 4,-1c1,0 1.693451,-0.458801 3,-1c0.923889,-0.38269 1.292908,-0.292908 2,-1c0.707092,-0.707092 1.823761,-0.486267 4,-1c1.946503,-0.459503 4,-1 5,-2l1,0l1,0" id="svg_13" stroke-width="1.5" stroke="#ffffff" fill="none" class="sNzvAzVS_2"></path>
  <path d="m246.981491,279.770836c0,0 1,0 2,0c1,0 1.076111,-0.61731 2,-1c1.306549,-0.541199 3,-1 4,-1c1,0 2.292908,-0.292908 3,-1c1.414215,-1.414215 3.076111,0.38269 4,0c1.306549,-0.541199 1.852722,-1.173096 3,-2c1.813995,-1.307465 7.15686,-2.579712 13,-5c4.131714,-1.711426 5,-2 6,-2c1,0 1,-1 2,-1c1,0 2.007507,-0.877808 3,-1c4.092224,-0.503784 8,-3 12,-4l2,0l1,0" id="svg_14" stroke-width="1.5" stroke="#ffffff" fill="none" class="sNzvAzVS_3"></path>
  <path d="m444.5,251.4375c0,1 -0.693451,1.458801 -2,2c-0.923889,0.38269 -6,0 -9,0c-1,0 -5,0 -7,0c-2,0 -3,0 -5,0c-1,0 -2,1 -3,1c-1,0 -2,0 -3,0c-1,0 -2.026764,0.770248 -3,1c-2.176239,0.513748 -4.053497,1.540497 -6,2c-2.176239,0.513733 -3.823761,2.486267 -6,3c-0.973236,0.229767 -1.693451,0.458801 -3,1c-0.923889,0.38269 -1.823761,1.486267 -4,2c-0.973236,0.229767 -2.026764,0.770233 -3,1c-2.176239,0.513733 -3,1 -4,1c-1,0 -0.693451,1.458801 -2,2c-0.923889,0.38269 -1,1 -1,2c0,1 0,2 0,3c0,1 -0.306549,2.458801 1,3c0.923889,0.38269 1.693451,0.458801 3,1c0.923889,0.38269 2.076111,-0.38269 3,0c1.306549,0.541199 2,1 3,1c2,0 4,0 6,0c2,0 4,0 6,0c2,0 3,0 5,0c1,0 2,0 3,0c2,0 3,0 4,0c1,0 2,0 3,0c1,0 2,0 3,0c1,0 3,0 4,0c2,0 3,0 5,0c1,0 2,0 3,0c1,0 2,0 3,0c2,0 3,0 4,0c1,0 2,0 4,0c1,0 2.152252,0.765381 4,0c1.306549,-0.541199 3.309998,-0.337494 6,-2c1.203003,-0.7435 2.292908,-0.292908 3,-1c0.707092,-0.707092 0.292908,-1.292908 1,-2c0.707092,-0.707092 1.693451,-1.458801 3,-2c0.923889,-0.38269 0.61731,-1.076111 1,-2c0.541199,-1.306549 1,-2 1,-3c0,-1 0,-2 0,-3c0,-1 0,-2 0,-3c0,-1 0.229767,-2.026764 0,-3c-0.513733,-2.176254 -0.292908,-3.292892 -1,-4c-0.707092,-0.707108 -1,-1 -2,-2c-1,-1 -2.076111,-1.61731 -3,-2c-1.306549,-0.541199 -2.292908,-1.292892 -3,-2c-0.707092,-0.707108 -1.292908,-0.292892 -2,-1c-0.707092,-0.707108 -1.292908,-0.292892 -2,-1c-0.707092,-0.707108 -1.292908,-0.292892 -2,-1c-0.707092,-0.707108 -1,-1 -2,-1c-1,0 -2,0 -3,0l-1,0l-1,0" id="svg_15" stroke-width="1.5" stroke="#ffffff" fill="none" class="sNzvAzVS_4"></path>
  <path d="m425.5,251.4375c0,-1 0.38269,-2.076126 0,-3c-0.541199,-1.306564 -2.076111,-1.61731 -3,-2c-1.306549,-0.541199 -1.292908,-1.292892 -2,-2c-0.707092,-0.707108 -1,-1 -3,-1c-1,0 -1,-1 -2,-1c-1,0 -2,0 -3,0c-1,0 -2,0 -3,0c-1,0 -2,0 -3,0c-1,0 -2,0 -3,0c-1,0 -2,0 -3,0c-1,0 -1.292908,0.292892 -2,1c-0.707092,0.707108 -1.292908,1.292892 -2,2c-0.707092,0.707108 -2,1 -3,2c-1,1 -1.693451,2.458801 -3,3c-0.923889,0.38269 -1.292908,0.292892 -2,1c-0.707092,0.707108 -1,1 -1,2c0,1 -0.458801,1.693436 -1,3c-0.38269,0.923889 -0.292908,1.292908 -1,2c-0.707092,0.707092 0.707092,2.292908 0,3c-0.707092,0.707092 -1.292908,0.292908 -2,1c-0.707092,0.707092 0,2 0,3c0,1 -1.173096,1.852722 -2,3c-1.307465,1.813995 -0.61731,3.076111 -1,4c-0.541199,1.306549 -2,2 -2,3c0,1 0,2 0,3c0,1 0,2 0,3c0,1 0,2 0,3c0,1 0,2 0,3c0,1 0,2 0,3c0,2 0.229767,3.026764 0,4c-0.513733,2.176239 -1,3 -1,4c0,1 0,2 0,3c0,1 0,2 0,3c0,1 0,2 0,4c0,2 0,3 0,4c0,2 0,3 1,3c1,0 2,0 3,0c1,0 2,0 3,0c1,0 2,0 3,0c1,0 2,0 3,0c1,0 2,0 3,0c1,0 1.292908,-0.292908 2,-1c0.707092,-0.707092 2,-1 3,-1c1,0 1.852722,-0.173096 3,-1c1.813995,-1.307465 3.458801,-1.693451 4,-3c0.38269,-0.923889 2.458801,-0.693451 3,-2c0.38269,-0.923889 0.292908,-2.292908 1,-3c0.707092,-0.707092 1.770233,-0.026764 2,-1c0.513733,-2.176239 3.486267,-6.823761 4,-9c0.459503,-1.946503 0,-3 0,-4c0,-1 0,-2 0,-3c0,-1 0,-2 0,-3c0,-1 0,-2 0,-3l0,-1" id="svg_17" stroke-width="1.5" stroke="#ffffff" fill="none" class="sNzvAzVS_5"></path>
  <path d="m393.333282,248.148041c-0.740723,0 -1.521118,0.340378 -2.962952,0c-1.61203,-0.380554 -4.613617,0.109665 -6.666656,-0.740738c-0.967834,-0.400894 -1.481506,-0.740753 -2.222229,-0.740753c-0.740753,0 -1.481476,0 -2.222229,0c-0.740723,0 -1.481476,0 -2.222229,0c-0.740723,0 -1.481476,0 -2.222198,0c-1.481506,0 -2.278625,-0.283478 -2.962982,0c-0.967804,0.400894 -1.396271,0.943954 -2.962952,1.481491c-3.572601,1.225784 -4.313904,1.84166 -5.925934,2.222214c-0.720917,0.170181 -0.957672,0.216949 -1.481476,0.740738c-0.523773,0.523773 -0.906799,1.4095 -1.481476,2.962967c-1.059631,2.864456 -1.567322,4.417648 -2.222229,6.666672c-0.853912,2.932343 -0.717438,6.23114 -2.222229,8.888885c-0.516113,0.91156 -0.216919,2.439148 -0.740723,2.962952c-0.523804,0.523804 -0.740753,0.740753 -0.740753,1.481476c0,0.740753 0,1.481476 0,2.222229c0,0.740753 0,1.481476 0,2.962952c0,2.222229 -0.740723,3.703705 -0.740723,5.925934c0,1.481476 0,3.703705 0,5.185181c0,0.740753 0,2.222229 0,2.962952c0,1.481476 0,2.222229 0,2.962982c0,0.740723 -0.339844,1.254395 -0.740753,2.222198c-0.283478,0.684357 0,2.222229 0,2.962982c0,0.740723 0,1.481476 0,2.222198c0,0.740753 0,1.481506 0,2.222229c0,0.740753 -0.339844,1.254395 -0.740723,2.222229c-0.283478,0.684357 0,1.481476 0,2.222229c0,0.740723 0.740723,0.740723 1.481476,0.740723c0.740723,0 1.481476,0 2.222198,0c0.740753,0 1.481506,0.740753 2.222229,0.740753c0.740753,0 1.481476,0 2.222229,0c0.740753,0 0.740753,0.740723 1.481476,0.740723c0.740753,0 1.481476,0 2.222229,0c0.740723,0 1.481476,0 2.222229,0c0.740723,0 1.254395,-0.339844 2.222198,-0.740723c0.684357,-0.283478 0.740753,-0.740753 1.481506,-0.740753c0.740723,0 1.481476,-0.740723 2.222198,-1.481476l0,-0.740723l0.740753,0l0.740723,-0.740753" id="svg_22" stroke-width="1.5" stroke="#ffffff" fill="none" class="sNzvAzVS_6"></path>
  <path d="m414.074005,296.296173c0.740753,0 1.481506,0 2.222229,0c0.740753,0 2.222229,0 3.703705,0c0.740753,0 2.334991,-0.566925 3.703705,0c0.967834,0.400879 3.002594,0.40036 4.444427,0.740723c1.612061,0.380554 3.703705,0.740753 5.925934,0.740753c1.481476,0 3.703705,0 4.444458,0c3.703705,0 5.185181,0 6.666656,0c4.444427,0 5.925934,0 8.148132,0c2.962982,0 5.185181,0 7.40741,0c0.740753,0 2.222229,-0.740753 2.962952,-0.740753c1.481506,0 2.334991,-0.173798 3.703705,-0.740723c0.967834,-0.400879 1.481476,-1.481506 2.222229,-2.222229c0.740753,-0.740753 1.698425,-0.957672 2.222229,-1.481476c0.523804,-0.523804 0.216949,-0.957703 0.740723,-1.481476c0.523804,-0.523804 1.080627,-0.513672 1.481506,-1.481506c0.283447,-0.684326 1.100922,-1.350922 1.481476,-2.962952c0.340393,-1.441833 -0.306824,-2.656158 0.740723,-3.703705c0.523804,-0.523804 0.740753,-0.740723 0.740753,-1.481476c0,-0.740753 0.360168,-1.350922 0.740723,-2.962952c0.340363,-1.441833 0,-2.222229 0,-2.962982c0,-0.740723 0,-1.481476 0,-2.222198c0,-1.481506 0,-2.222229 0,-2.962982c0,-1.481476 0,-3.703705 0,-5.185181c0,-2.222229 0,-2.962952 0,-3.703705c0,-1.481476 -0.339844,-1.995117 -0.740723,-2.962952c-0.566925,-1.368713 -0.360199,-2.091675 -0.740753,-3.703705c-0.170197,-0.720917 0.523773,-1.698441 0,-2.222214c-0.523773,-0.523773 -0.740723,-0.740753 -0.740723,-1.481491c0,-0.740738 -1.080597,-1.254395 -1.481476,-2.222214c-0.283478,-0.684357 -1.420471,-1.768066 -2.222229,-3.703705c-0.566925,-1.368698 -0.957703,-1.698441 -1.481476,-2.222214c-0.523804,-0.523788 0,-1.481491 -0.740753,-2.222229c-0.740753,-0.740738 -1.080597,-1.254395 -1.481476,-2.222214c-0.283478,-0.684372 -0.740753,-1.481491 -1.481476,-2.222229c-0.740753,-0.740753 -1.481476,-1.481476 -2.222229,-2.222214c-0.740753,-0.740753 -1.263306,-1.73793 -2.962952,-2.962967c-1.343719,-0.968491 -2.962982,-1.481491 -3.703705,-2.222229c-0.740753,-0.740753 -0.853516,-0.914551 -2.222229,-1.481476c-0.967834,-0.400879 -0.740753,-1.481476 -1.481476,-1.481476l-0.740753,-0.740738l-0.740723,-0.740753" id="svg_23" stroke-width="1.5" stroke="#ffffff" fill="none" class="sNzvAzVS_7"></path>
  <path d="m451.111053,215.555466c0,-1.481491 0,-2.222229 -0.740753,-2.962967c-0.740753,-0.740738 -0.650116,-1.530365 -1.481476,-2.962967c-1.340515,-2.309982 -4.088379,-4.857895 -5.925934,-7.407394c-0.968475,-1.343704 -3.100739,-3.475967 -4.444427,-4.444443c-1.699677,-1.225052 -2.045258,-2.530304 -4.444458,-3.703705c-2.104248,-1.029144 -3.732391,-1.125534 -5.925934,-1.481491c-2.312164,-0.375214 -3.703674,-1.481476 -5.185181,-1.481476c-0.740723,0 -1.481476,0 -2.222198,0c-1.481506,0 -2.113159,0.868958 -2.962982,1.481476c-1.343689,0.968475 -2.824188,1.634689 -4.444427,2.962967c-2.06543,1.693237 -3.019348,2.679489 -3.703705,2.962967c-0.967834,0.400879 -1.481476,0.740738 -2.222229,0.740738c-1.481476,0 -2.222229,0 -2.962952,0c-1.481476,0 -2.222229,0 -2.962952,0c-1.481506,0 -3.801483,0.181259 -6.666687,-1.481476c-2.309967,-1.34053 -2.962952,-1.481476 -3.703705,-2.222229c-0.740723,-0.740738 -1.481476,-2.222229 -2.222198,-2.962967c-0.740753,-0.740753 -1.791748,-1.791748 -2.962982,-2.962952c-1.171204,-1.171204 -1.995117,-1.82135 -2.962952,-2.222229c-0.684357,-0.283478 -1.481476,-0.740738 -2.222229,-0.740738c-0.740723,0 -0.740723,-0.740738 -2.222198,-0.740738c-0.740753,0 -1.481506,0 -2.222229,0c-0.740753,0 -1.481476,0 -2.222229,0c-0.740753,0 -1.481476,0 -2.222229,0c-0.740723,0 -2.222198,0.740738 -3.703705,0.740738c-0.740723,0 -1.481476,0 -2.222198,0.740738l-0.740753,0l-0.740753,0l-0.740723,0" id="svg_24" stroke-width="1.5" stroke="#ffffff" fill="none" class="sNzvAzVS_8"></path>
  <path d="m391.851807,231.851746c0.740753,0 0.513672,-1.080597 1.481476,-1.481476c0.684357,-0.283478 1.254395,-0.339859 2.222229,-0.740738c0.684326,-0.283463 1.481476,0 2.222229,0c0.740723,0 1.481476,0 2.962952,0c0.740753,0 1.481476,0 2.222229,0c0.740723,0 1.481476,0 2.222198,0c0.740753,0 1.481506,0 2.222229,0l0.740753,0l0.740723,0" id="svg_31" stroke-width="1.5" stroke="#ffffff" fill="none" class="sNzvAzVS_9"></path>
  <path d="m374.814789,214.814713c0,0.740753 0,1.481491 0,2.222229c0,0.740738 0.740723,0.740738 1.481476,0.740738c0.740723,0 0.957703,-0.216965 1.481476,-0.740738c0.523804,-0.523788 0.957703,-0.216965 1.481476,-0.740738c0.523773,-0.523773 0.740753,-0.740738 0,-0.740738c-0.740723,0 -1.481476,0 -2.222229,0c-0.740723,0 -1.481476,0 -2.222198,0l-0.740753,0" id="svg_33" stroke-width="1.5" stroke="#ffffff" fill="none" class="sNzvAzVS_10"></path>
  <path d="m417.77771,214.814713c0,0.740753 -0.216949,0.957718 -0.740723,1.481491c-0.523804,0.523788 -0.957703,0.216965 -1.481476,0.740738c-0.523804,0.523788 -0.21698,0.957703 -0.740753,1.481476c-0.523804,0.523788 -0.523773,0.216965 0,0.740738c0.523804,0.523788 1.698425,-0.523788 2.222229,0c0.523773,0.523773 0.957672,1.264526 1.481476,0.740738c0.523773,-0.523773 0.523773,-1.698441 0,-2.222214c-0.523804,-0.523788 -0.957703,-0.216965 -1.481476,-0.740738c-0.523773,-0.523773 0,-1.481476 0,-2.222229l0,-0.740738" id="svg_37" stroke-width="1.5" stroke="#ffffff" fill="none" class="sNzvAzVS_11"></path>
  <path d="m479.259186,263.703583c0,0 0.740723,0 2.222198,0c0.740753,0 1.538452,0.541809 4.444458,1.481476c3.795532,1.227295 6.896301,2.472198 8.888885,3.703705c0.891113,0.550751 2.562073,1.254395 2.962952,2.222229c0.283447,0.684326 1.100922,0.610168 1.481476,2.222229c0.170166,0.720917 0.457275,0.797119 0.740753,1.481476c0.400879,0.967804 0.740723,1.481476 0.740723,2.222229c0,2.222198 0,5.185181 0,7.407379c0,2.222229 0,3.703705 0,5.185181c0,1.481506 0,2.962982 0,3.703705c0,0.740753 0,1.481476 -0.740723,2.222229c-0.740753,0.740753 -0.25,1.711121 -1.481476,3.703705c-0.550751,0.891144 -1.592102,1.832794 -2.222229,2.222229c-1.408966,0.870789 -1.481476,2.962952 -2.962952,4.444427c-1.481506,1.481476 -2.222229,2.222229 -3.703705,3.703705c-0.740753,0.740753 -2.982788,2.052063 -3.703705,2.222229c-1.61203,0.380554 -2.222229,1.481476 -3.703705,2.222229c-1.481476,0.740723 -2.853882,1.60968 -3.703705,2.222198c-1.343719,0.968475 -2.890961,1.647583 -4.444427,2.222229c-2.864471,1.059631 -5.297974,1.655304 -6.666687,2.222229c-1.935638,0.801758 -2.914154,1.588379 -4.444427,2.222229c-2.164124,0.896423 -3.67691,0.826569 -5.925934,1.481476c-2.932343,0.853912 -4.417633,0.826569 -6.666656,1.481476c-5.864716,1.707825 -7.073456,2.188995 -9.629639,2.962952c-2.126862,0.643951 -3.613739,1.106262 -5.925903,1.481476c-1.462341,0.237305 -5.218475,0.197693 -9.629639,0.740753c-3.03125,0.373169 -5.925934,0.740753 -8.148132,0.740753c-2.222229,0 -4.389496,0.368561 -8.148163,0.740723c-2.948547,0.291962 -4.217346,0.339874 -5.185181,0.740753c-1.368713,0.566925 -3.703705,0 -5.925903,0c-2.222229,0 -3.703705,0 -4.444458,0c-2.962952,0 -4.444427,0 -6.666656,0c-1.481476,0 -3.635406,-0.367584 -6.666656,-0.740753c-2.940796,-0.36203 -6.005188,0.680725 -8.888885,0c-1.61203,-0.380554 -3.661957,-0.880249 -5.925934,-1.481476c-3.650513,-0.969452 -8.058167,-1.847015 -10.370361,-2.222229c-2.193542,-0.355957 -3.703705,0 -5.925934,-0.740723c-2.222229,-0.740753 -3.553314,-0.930756 -4.444427,-1.481506c-1.992584,-1.231506 -3.76181,-1.325775 -5.925934,-2.222198c-1.530273,-0.63385 -2.222229,-1.481476 -3.703705,-2.222229c-1.481476,-0.740753 -2.73587,-1.82135 -3.703705,-2.222229c-0.684326,-0.283447 -1.698425,-0.216949 -2.222198,-0.740723c-0.523804,-0.523804 0.523804,-1.698425 0,-2.222229c-0.523804,-0.523804 -0.740753,-0.740753 -0.740753,-1.481476c0,-0.740753 0,-1.481476 0,-2.222229c0,-0.740753 0,-1.481476 0,-2.222229c0,-0.740723 0.740753,-0.740723 0.740753,-1.481476c0,-0.740723 1.080597,-1.254395 1.481476,-2.222229c0.566925,-1.368713 0.457275,-1.537872 0.740723,-2.222198c0.400879,-0.967834 0.740753,-1.481506 1.481476,-2.222229c0.740753,-0.740753 0.43396,-1.915405 1.481506,-2.962952c0.523773,-0.523773 0.957672,-0.216949 1.481476,-0.740753c0.523804,-0.523804 0.957672,-0.216949 1.481476,-0.740753c0.523773,-0.523773 0,-1.481476 0.740753,-1.481476c0.740723,0 0.740723,-0.740723 1.481476,-0.740723c0.740723,0 0.957672,-0.216949 1.481476,-0.740753c0.523804,-0.523804 0.216949,-0.957703 0.740723,-1.481476c0.523804,-0.523804 1.698456,0.523773 2.222229,0c0.523804,-0.523804 0.740753,-0.740753 1.481476,-0.740753c0.740753,0 1.537872,0.283478 2.222229,0c0.967834,-0.400879 1.481476,-0.740723 2.222229,-0.740723c0.740723,0 1.481476,0 2.222229,0l0.740723,0" id="svg_38" stroke-width="1.5" stroke="#ffffff" fill="none" class="sNzvAzVS_12"></path>
  <path d="m229.629654,315.55542c0,-0.740753 -0.339859,-1.254395 -0.740738,-2.222229c-0.283478,-0.684357 -0.740738,-1.481476 -0.740738,-2.222229c0,-0.740723 -1.100922,-2.832397 -1.481476,-4.444427c-0.510559,-2.162781 -0.740753,-2.962982 -0.740753,-3.703705c0,-0.740753 -0.339859,-1.254395 -0.740738,-2.222229c-0.283463,-0.684326 0,-1.481476 0,-2.222229c0,-1.481476 -0.740738,-1.481476 -0.740738,-2.962952c0,-1.481476 0,-2.222229 0,-2.962952c0,-0.740753 0,-1.481476 0,-2.222229c0,-0.740753 0,-1.481476 0,-2.222229c0,-0.740723 0,-2.222198 0,-2.962952c0,-1.481476 0,-2.222229 0,-2.962952c0,-0.740753 0,-1.481506 0,-2.222229c0,-0.740753 0,-1.481476 0,-2.222229c0,-0.740723 0,-1.481476 0,-2.222229l0,-0.740723l0,-0.740753l0,-0.740723" id="svg_40" stroke-width="1.5" stroke="#ffffff" fill="none" class="sNzvAzVS_13"></path>
  <path d="m223.703735,273.333221c-0.740738,0 -1.481476,0 -2.222229,0c-1.481476,0 -1.537857,-0.457275 -2.222214,-0.740753c-0.967834,-0.400879 -1.698441,-0.216949 -2.222229,-0.740753c-0.523773,-0.523773 -0.740723,-0.740723 -1.481476,-1.481476c-0.740738,-0.740723 -1.698441,-0.957703 -2.222214,-1.481476c-0.523773,-0.523773 -0.740753,-0.740723 -0.740753,-1.481476c0,-0.740753 -1.080597,-1.254395 -1.481476,-2.222229c-0.283463,-0.684326 0.523788,-1.698425 0,-2.222229c-0.523773,-0.523773 -0.740738,-0.740723 -0.740738,-1.481476c0,-0.740723 0,-1.481476 0,-2.222198c0,-0.740753 0,-2.222229 0,-2.962982c0,-0.740738 0,-1.481476 0,-2.222214c0,-0.740738 0,-1.481476 0,-2.222229c0,-0.740738 0,-1.481476 0,-2.222214c0,-0.740738 1.080597,-0.967819 1.481476,0c0.283463,0.684357 -0.523773,1.698441 0,2.222214c0.523773,0.523773 0.740738,0.740753 0.740738,1.481491c0,0.740738 -0.523773,1.698441 0,2.222214c0.523788,0.523788 0.740753,0.740738 0.740753,1.481491c0,0.740723 0.957703,1.264496 1.481476,0.740723c0.523773,-0.523773 -0.523773,-1.698425 0,-2.222214c0.523773,-0.523773 1.698441,-0.523773 2.222214,0c0.523773,0.523788 0.216965,0.957687 0.740753,1.481491c0.523773,0.523773 0.339859,1.254395 0.740738,2.222229c0.283463,0.684326 0,1.481476 0.740738,1.481476c0.740738,0 0.740738,-0.740753 0.740738,-1.481476c0,-0.740753 0,-1.481506 0,-2.222229c0,-0.740753 0.740738,-0.740753 1.481476,-0.740753c0.740753,0 0.957718,0.21698 1.481491,0.740753c0.523773,0.523773 0.740738,0.740723 0.740738,0c0,-0.740753 0.740738,-1.481491 0.740738,-2.222229c0,-0.740738 0.056381,-1.764938 0.740738,-1.481476c0.967819,0.400879 1.481491,1.481476 1.481491,2.222214c0,0.740738 0.216965,0.957718 0.740738,1.481491c0.523773,0.523773 0,0 0,-0.740753c0,-0.740738 0.216965,-0.957703 0.740738,-1.481476c0.523773,-0.523773 0.216965,-0.957703 0.740738,-1.481476c0.523773,-0.523773 0.740738,-0.740738 0.740738,-1.481491c0,-0.740738 0.216965,-2.005249 0.740738,-1.481476c0.523773,0.523773 0,1.481476 0,2.222229c0,0.740738 0,1.481476 0,2.222214c0,0.740738 0,1.481476 0,2.222229c0,0.740723 0,1.481476 0,2.222229c0,0.740723 0,1.481476 0,2.222198c0,0.740753 0,1.481476 0,2.222229c0,0.740753 0,1.481476 0,2.222229c0,0.740723 0,1.481476 0,2.222229c0,0.740723 0.523773,1.698425 0,2.222198c-0.523773,0.523773 -1.698441,-0.523773 -2.222214,0c-0.523788,0.523804 -0.513657,1.080597 -1.481476,1.481476c-0.684372,0.283478 -0.740753,0.740753 -1.481491,0.740753l-0.740738,0l0,0.740753" id="svg_42" stroke-width="1.5" stroke="#ffffff" fill="none" class="sNzvAzVS_14"></path>
  <path d="m223.703735,288.14801c-0.740738,0 -1.481476,0 -2.222229,0c-0.740738,0 -1.254395,-0.339844 -2.222214,-0.740723c-0.684357,-0.283478 -1.481476,0 -2.222229,0c-0.740738,0 -0.513657,-1.080597 -1.481476,-1.481476c-0.684357,-0.283478 -0.957703,-0.21698 -1.481476,-0.740753c-0.523788,-0.523804 -0.216965,-0.957703 -0.740738,-1.481476c-0.523788,-0.523804 -0.957718,-0.21698 -1.481491,-0.740753c-0.523773,-0.523773 -0.283478,0.056396 0,0.740753c0.400879,0.967804 1.080597,1.254395 1.481491,2.222229c0.283463,0.684326 0.056381,1.197998 0.740738,1.481476c0.967819,0.400879 1.080597,1.254395 1.481476,2.222198c0.283478,0.684357 0.457275,1.537903 0.740738,2.222229c0.400879,0.967834 1.198029,0.79715 1.481491,1.481476c0.400879,0.967834 0.957687,1.698425 1.481476,2.222229c0.523773,0.523773 0.957703,0.21698 1.481476,0.740753c0.523773,0.523773 0.216949,0.957672 0.740738,1.481476c0.523788,0.523804 1.481491,0 2.222229,0.740723l0.740738,0.740753l0.740738,0" id="svg_44" stroke-width="1.5" stroke="#ffffff" fill="none" class="sNzvAzVS_15"></path>
  <path d="m225.925949,288.14801c0,0 0.957718,0.523773 1.481491,0c0.523773,-0.523773 0.740723,-0.740723 1.481476,-1.481476c0.740738,-0.740723 1.481476,-0.740723 2.222229,-0.740723c0.740738,0 1.080597,0.513641 1.481476,1.481476c0.283463,0.684326 0.283463,1.537872 0,2.222198c-0.400879,0.967834 -1.481476,1.481506 -1.481476,2.222229c0,0.740753 -0.216965,0.957672 -0.740753,1.481476c-0.523788,0.523804 -0.216965,0.957703 -0.740738,1.481476c-0.523788,0.523804 0.283463,1.537903 0,2.222229c-0.400879,0.967834 -0.957703,0.957703 -1.481476,1.481476c-0.523788,0.523804 0,1.481506 0,2.222229c0,0.740753 0,1.481476 0,2.222229c0,0.740723 0,1.481476 0,2.222229l0,0.740723l-0.740738,0l0,0.740753" id="svg_46" stroke-width="1.5" stroke="#ffffff" fill="none" class="sNzvAzVS_16"></path>
  <path d="m217.777817,319.259125c0,-0.740753 0,-1.481476 0,-2.222229c0,-0.740753 -0.740753,-1.481476 -0.740753,-2.222229c0,-0.740723 0.21698,-0.523773 0.740753,0c0.523773,0.523773 0.272385,1.158478 2.962952,3.703705c1.940201,1.835388 3.179932,2.439178 3.703705,2.962952c0.523788,0.523804 1.100922,0.871307 1.481476,-0.740723c0.170197,-0.720947 -0.523788,-1.698425 0,-2.222229c0.523788,-0.523804 1.481491,0 1.481491,-0.740723c0,-0.740753 -0.283463,-1.537903 0,-2.222229c0.400879,-0.967834 0.740738,-1.481476 0.740738,-2.222229c0,-0.740753 0.957703,-0.21698 1.481476,-0.740753c0.523773,-0.523773 0.740738,-0.740723 1.481491,-0.740723c0.740738,0 0.740738,-0.740753 1.481476,-0.740753c0.740738,0 0.957703,0.957703 1.481476,1.481476c0.523773,0.523773 1.481491,0 1.481491,-0.740723c0,-1.481476 0,-2.222229 0.740738,-2.222229c0.740738,0 0.740738,0.740753 0.740738,0c0,-0.740723 0.851364,-1.130157 1.481476,-0.740723c1.408966,0.870789 1.481476,3.703674 2.222229,4.444427c0.740738,0.740753 1.481476,0.740753 2.222214,1.481476l0.740738,1.481476l0,0.740753" id="svg_50" stroke-width="1.5" stroke="#ffffff" fill="none" class="sNzvAzVS_17"></path>
 </g>
<style data-made-with="vivus-instant">.sNzvAzVS_0{stroke-dasharray:1968 1970;stroke-dashoffset:1969;animation:sNzvAzVS_draw 2000ms linear 0ms forwards;}.sNzvAzVS_1{stroke-dasharray:400 402;stroke-dashoffset:401;animation:sNzvAzVS_draw 2000ms linear 58ms forwards;}.sNzvAzVS_2{stroke-dasharray:130 132;stroke-dashoffset:131;animation:sNzvAzVS_draw 2000ms linear 117ms forwards;}.sNzvAzVS_3{stroke-dasharray:62 64;stroke-dashoffset:63;animation:sNzvAzVS_draw 2000ms linear 176ms forwards;}.sNzvAzVS_4{stroke-dasharray:199 201;stroke-dashoffset:200;animation:sNzvAzVS_draw 2000ms linear 235ms forwards;}.sNzvAzVS_5{stroke-dasharray:177 179;stroke-dashoffset:178;animation:sNzvAzVS_draw 2000ms linear 294ms forwards;}.sNzvAzVS_6{stroke-dasharray:119 121;stroke-dashoffset:120;animation:sNzvAzVS_draw 2000ms linear 352ms forwards;}.sNzvAzVS_7{stroke-dasharray:140 142;stroke-dashoffset:141;animation:sNzvAzVS_draw 2000ms linear 411ms forwards;}.sNzvAzVS_8{stroke-dasharray:107 109;stroke-dashoffset:108;animation:sNzvAzVS_draw 2000ms linear 470ms forwards;}.sNzvAzVS_9{stroke-dasharray:18 20;stroke-dashoffset:19;animation:sNzvAzVS_draw 2000ms linear 529ms forwards;}.sNzvAzVS_10{stroke-dasharray:15 17;stroke-dashoffset:16;animation:sNzvAzVS_draw 2000ms linear 588ms forwards;}.sNzvAzVS_11{stroke-dasharray:18 20;stroke-dashoffset:19;animation:sNzvAzVS_draw 2000ms linear 647ms forwards;}.sNzvAzVS_12{stroke-dasharray:275 277;stroke-dashoffset:276;animation:sNzvAzVS_draw 2000ms linear 705ms forwards;}.sNzvAzVS_13{stroke-dasharray:44 46;stroke-dashoffset:45;animation:sNzvAzVS_draw 2000ms linear 764ms forwards;}.sNzvAzVS_14{stroke-dasharray:110 112;stroke-dashoffset:111;animation:sNzvAzVS_draw 2000ms linear 823ms forwards;}.sNzvAzVS_15{stroke-dasharray:38 40;stroke-dashoffset:39;animation:sNzvAzVS_draw 2000ms linear 882ms forwards;}.sNzvAzVS_16{stroke-dasharray:31 33;stroke-dashoffset:32;animation:sNzvAzVS_draw 2000ms linear 941ms forwards;}.sNzvAzVS_17{stroke-dasharray:52 54;stroke-dashoffset:53;animation:sNzvAzVS_draw 2000ms linear 1000ms forwards;}@keyframes sNzvAzVS_draw{100%{stroke-dashoffset:0;}}@keyframes sNzvAzVS_fade{0%{stroke-opacity:1;}94.44444444444444%{stroke-opacity:1;}100%{stroke-opacity:0;}}</style></svg>