<svg width="580" height="400" xmlns="http://www.w3.org/2000/svg" style="">
 <!-- Created with Method Draw - http://github.com/duopixel/Method-Draw/ -->
 <g>
  <title>background</title>
  <path fill="none" id="canvas_background" height="402" width="582" d="M-1 -1 L581 -1 L581 401 L-1 401 Z" class="nWdzApYQ_0"></path>
  <g display="none" overflow="visible" y="0" x="0" height="100%" width="100%" id="canvasGrid">
   <path fill="url(#gridpattern)" stroke-width="0" height="100%" width="100%" d="M0 0 L100 0 L100 100 L0 100 Z" class="nWdzApYQ_1"></path>
  </g>
 </g>
 <g>
  <title>Layer 1</title>
  <path d="m201.5,109.4375c0,0 0.144516,1.366699 -2,2c-8.684601,2.56469 -29.295273,3.338196 -78,-4c-30.25267,-4.558075 -49.052834,-9.763245 -63,-13c-24.098206,-5.592537 -56.93568,-18.163368 -72,-24c-7.966925,-3.086761 -11.195774,-4.648857 -15,-7c-4.253254,-2.628654 -10.765076,-9.14753 -19,-22c-1.945152,-3.035851 -2.692547,-5.186008 -4,-7c-1.653809,-2.29454 -5,-8 -6,-11l-1,-1" id="svg_2" fill-opacity="null" stroke-width="1.5" stroke="#ffffff" fill="none" class="nWdzApYQ_2"></path>
  <path d="m29.5,150.4375c1,0 1.907787,0.496231 6,1c5.955044,0.733093 15.090389,1.121277 22,0c6.242889,-1.013077 11,-3 16,-6c10,-6 35.230499,-24.66468 63,-44c7.059616,-4.915466 10.390991,-7.769508 14,-10c2.689987,-1.662506 6.942978,-3.118355 11,-5c6.908859,-3.204323 11.963837,-4.115868 15,-5c3.958679,-1.152771 7.020447,-1.494881 13,-1c6.062042,0.501709 10.769928,3.54863 15,5c4.823029,1.654816 7.538696,2.606438 10,4c3.587921,2.031448 10,2 16,4l7,0l1,0l1,0" id="svg_3" fill-opacity="null" stroke-width="1.5" stroke="#ffffff" fill="none" class="nWdzApYQ_3"></path>
  <path d="m136.5,139.4375c0,-1 1.53389,-1.808868 14,7c32.524048,22.982315 55.255798,44.268433 75,55c25.159439,13.674896 40.759949,18.963379 55,22c13.831146,2.949432 38.053558,4.935516 73,3c36.166107,-2.003067 72.234894,-12.387436 104,-29c48.186401,-25.200607 86,-56 120,-81l33,-30l11,-7l1,-1" id="svg_4" fill-opacity="null" stroke-width="1.5" stroke="#ffffff" fill="none" class="nWdzApYQ_4"></path>
  <path d="m286.5,143.4375c0,0 1.372253,0.340439 5,-4c28.107727,-33.629684 51.459198,-74.516136 91,-97c33.824249,-19.233292 54.836761,-30.018806 106,-48c34.341431,-12.069214 68.92865,-16.747181 86,-18c33.923462,-2.489553 60.133606,-0.60416 75,3c7.075134,1.715277 18.09613,5.738517 32,11c15.109802,5.717844 22,8 25,10l2,0l1,0" id="svg_5" fill-opacity="null" stroke-width="1.5" stroke="#ffffff" fill="none" class="nWdzApYQ_5"></path>
  <path d="m175.5,66.4375c3,0 24.772842,-4.730095 72,7c36.828339,9.147278 81.981079,23.942589 133,42c46.047577,16.297882 88.35022,41.441193 127,58c25.605713,10.970306 89.990967,33.022766 138,52c37.992859,15.018021 62,21 67,21l4,0l1,0" id="svg_6" fill-opacity="null" stroke-width="1.5" stroke="#ffffff" fill="none" class="nWdzApYQ_6"></path>
  <path d="m329.5,186.4375c0,0 0.106537,0.644012 2,0c15.527649,-5.281296 64.152588,-59.506325 119,-98c50.410889,-35.379982 103.980896,-65.795179 161,-85c45.301147,-15.258052 85,-20 128,-24l17,0l5,0l2,0" id="svg_7" fill-opacity="null" stroke-width="1.5" stroke="#ffffff" fill="none" class="nWdzApYQ_7"></path>
  <path d="m26.5,204.4375c0,0 0.031008,0.752914 1,1c12.141449,3.095993 46.151299,21.400513 75,29c7.039948,1.854507 16.973251,3.49968 31,4c16.989197,0.605988 57.502731,-12.002136 90,-29c16.266739,-8.508408 45.681885,-27.516068 73,-44c44.497864,-26.850311 76.5354,-51.369598 101,-60c14.425751,-5.088989 25.03894,-3.737457 32,-3c14.238159,1.508392 33.535095,9.900505 57,22c33.84436,17.451584 65.297485,36.731857 107,46c38.519043,8.560623 66,7 77,7l2,0l1,0l1,0" id="svg_8" fill-opacity="null" stroke-width="1.5" stroke="#ffffff" fill="none" class="nWdzApYQ_8"></path>
  <path d="m478.5,269.4375c-7,-8 -27.24646,-27.746475 -54,-54c-39.36615,-38.630386 -68.843933,-63.828415 -97,-85c-22.719147,-17.083351 -58.016663,-51.30043 -96,-79c-30.253174,-22.062307 -64.727798,-40.592912 -86,-50c-21.73893,-9.613484 -55.912094,-20.998283 -73,-22c-9.982861,-0.585209 -17.830978,1.565035 -27,4c-14.784601,3.926265 -41.978084,12.077245 -63,18c-17.981495,5.066141 -32,10 -41,15l-5,3l-4,4l-1,2" id="svg_9" fill-opacity="null" stroke-width="1.5" stroke="#ffffff" fill="none" class="nWdzApYQ_9"></path>
  <path d="m-6.5,294.4375c-1,0 1.006822,-0.116608 2,0c21.439772,2.517181 71.337135,13.567352 131,-2c43.488434,-11.347107 71.576294,-29.158691 103,-62c32.078522,-33.52565 54.013245,-90.05748 84,-144c24.414886,-43.919399 50.126862,-81.617165 56,-89c0.880432,-1.106734 1.693451,-2.458804 3,-3c0.923889,-0.382683 1,-1 2,-1l0,-1l1,0" id="svg_10" fill-opacity="null" stroke-width="1.5" stroke="#ffffff" fill="none" class="nWdzApYQ_10"></path>
 </g>
<style data-made-with="vivus-instant">.nWdzApYQ_0{stroke-dasharray:1968 1970;stroke-dashoffset:1969;animation:nWdzApYQ_draw 2000ms linear 0ms forwards;}.nWdzApYQ_1{stroke-dasharray:400 402;stroke-dashoffset:401;animation:nWdzApYQ_draw 2000ms linear 100ms forwards;}.nWdzApYQ_2{stroke-dasharray:290 292;stroke-dashoffset:291;animation:nWdzApYQ_draw 2000ms linear 200ms forwards;}.nWdzApYQ_3{stroke-dasharray:233 235;stroke-dashoffset:234;animation:nWdzApYQ_draw 2000ms linear 300ms forwards;}.nWdzApYQ_4{stroke-dasharray:556 558;stroke-dashoffset:557;animation:nWdzApYQ_draw 2000ms linear 400ms forwards;}.nWdzApYQ_5{stroke-dasharray:485 487;stroke-dashoffset:486;animation:nWdzApYQ_draw 2000ms linear 500ms forwards;}.nWdzApYQ_6{stroke-dasharray:575 577;stroke-dashoffset:576;animation:nWdzApYQ_draw 2000ms linear 600ms forwards;}.nWdzApYQ_7{stroke-dasharray:494 496;stroke-dashoffset:495;animation:nWdzApYQ_draw 2000ms linear 700ms forwards;}.nWdzApYQ_8{stroke-dasharray:704 706;stroke-dashoffset:705;animation:nWdzApYQ_draw 2000ms linear 800ms forwards;}.nWdzApYQ_9{stroke-dasharray:657 659;stroke-dashoffset:658;animation:nWdzApYQ_draw 2000ms linear 900ms forwards;}.nWdzApYQ_10{stroke-dasharray:538 540;stroke-dashoffset:539;animation:nWdzApYQ_draw 2000ms linear 1000ms forwards;}@keyframes nWdzApYQ_draw{100%{stroke-dashoffset:0;}}@keyframes nWdzApYQ_fade{0%{stroke-opacity:1;}94.44444444444444%{stroke-opacity:1;}100%{stroke-opacity:0;}}</style></svg>